# xmcd CD database file
#
# Track frame offsets:
#	183
#	19228
#	37953
#	54208
#	73053
#	88965
#	105690
#	127470
#	141980
#	157618
#	171653
#	191685
#
# Disc length: 2747 seconds
#
# Revision: 0
# Processed by: cddbd v1.5.2PL0 Copyright (c) Steve Scherf et al.
# Submitted via: CDex 1.51
#
DISCID=ae0ab90c
DTITLE=Abbi Hübber's Low Down Wizards and Peter Cohn - Together
DYEAR=1983
DGENRE=Jazz
TTITLE0=Together
TTITLE1=Chimes Blues
TTITLE2=Walk That Broad
TTITLE3=Slow Boat To China
TTITLE4=You'll Long For Me
TTITLE5=Gatemouth
TTITLE6=One Sweet Letter From You
TTITLE7=Last Mile Blues
TTITLE8=It's Tight, Jim!
TTITLE9=Sweet Substitute
TTITLE10=I'm Going Back To Bottomland
TTITLE11=Sweet Emmaline
EXTD=YEAR: 1983
EXTT0=
EXTT1=
EXTT2=
EXTT3=
EXTT4=
EXTT5=
EXTT6=
EXTT7=
EXTT8=
EXTT9=
EXTT10=
EXTT11=
PLAYORDER=
